<svg xmlns="http://www.w3.org/2000/svg" xmlns:xlink="http://www.w3.org/1999/xlink" width="198.498" height="159.721" viewBox="0 0 198.498 159.721">
  <defs>
    <clipPath id="clip-path">
      <rect id="Rectangle_129" width="198.498" height="159.721" fill="none"></rect>
    </clipPath>
  </defs>
  <g id="Group_61" transform="translate(273.303 -79.872)">
    <g id="Group_72" transform="translate(-273.303 79.872)">
      <g id="Group_71" clip-path="url(#clip-path)">
        <path id="Path_270" d="M182.882,2.092H15.181A13.09,13.09,0,0,0,2.091,15.181V144.106a13.09,13.09,0,0,0,13.09,13.089h5.708a7.745,7.745,0,0,1,13.029,0H56.7a7.746,7.746,0,0,1,13.03,0H92.517a7.745,7.745,0,0,1,13.029,0h22.785a7.745,7.745,0,0,1,13.029,0h22.784a7.746,7.746,0,0,1,13.03,0h5.707a13.088,13.088,0,0,0,13.089-13.089V15.181A13.089,13.089,0,0,0,182.882,2.092" transform="translate(0.218 0.218)" fill="#fff"></path>
        <path id="Path_271" d="M182.882,2.092H15.181A13.09,13.09,0,0,0,2.091,15.181V144.106a13.09,13.09,0,0,0,13.09,13.089h5.708a7.745,7.745,0,0,1,13.029,0H56.7a7.746,7.746,0,0,1,13.03,0H92.517a7.745,7.745,0,0,1,13.029,0h22.785a7.745,7.745,0,0,1,13.029,0h22.784a7.746,7.746,0,0,1,13.03,0h5.707a13.088,13.088,0,0,0,13.089-13.089V15.181A13.089,13.089,0,0,0,182.882,2.092Z" transform="translate(0.218 0.218)" fill="none" stroke="#48ac34" stroke-linecap="round" stroke-linejoin="round" stroke-width="4.182"></path>
        <path id="Path_272" d="M163.254,121.087a7.755,7.755,0,1,1-7.755-7.754A7.755,7.755,0,0,1,163.254,121.087Z" transform="translate(15.378 11.796)" fill="none" stroke="#48ac34" stroke-linecap="round" stroke-linejoin="round" stroke-width="2.509"></path>
        <path id="Path_273" d="M130.816,121.087a7.755,7.755,0,1,1-7.755-7.754A7.755,7.755,0,0,1,130.816,121.087Z" transform="translate(12.002 11.796)" fill="none" stroke="#48ac34" stroke-linecap="round" stroke-linejoin="round" stroke-width="2.509"></path>
        <path id="Path_274" d="M98.378,121.087a7.755,7.755,0,1,1-7.755-7.754A7.755,7.755,0,0,1,98.378,121.087Z" transform="translate(8.625 11.796)" fill="none" stroke="#48ac34" stroke-linecap="round" stroke-linejoin="round" stroke-width="2.509"></path>
        <path id="Path_275" d="M65.941,121.087a7.755,7.755,0,1,1-7.755-7.754A7.755,7.755,0,0,1,65.941,121.087Z" transform="translate(5.249 11.796)" fill="none" stroke="#48ac34" stroke-linecap="round" stroke-linejoin="round" stroke-width="2.509"></path>
        <path id="Path_276" d="M33.5,121.087a7.755,7.755,0,1,1-7.755-7.754A7.755,7.755,0,0,1,33.5,121.087Z" transform="translate(1.873 11.796)" fill="none" stroke="#48ac34" stroke-linecap="round" stroke-linejoin="round" stroke-width="2.509"></path>
        <path id="Path_277" d="M165.171,85.061H146.558a2.333,2.333,0,0,1-2.326-2.325V64.122a2.333,2.333,0,0,1,2.326-2.326h18.613a2.333,2.333,0,0,1,2.326,2.326V82.736a2.333,2.333,0,0,1-2.326,2.325" transform="translate(15.012 6.432)" fill="#48ac34"></path>
        <path id="Rectangle_127" d="M2.106,0H21.158a2.107,2.107,0,0,1,2.107,2.107V21.158a2.107,2.107,0,0,1-2.107,2.107H2.107A2.107,2.107,0,0,1,0,21.158V2.106A2.106,2.106,0,0,1,2.106,0Z" transform="translate(159.244 68.228)" fill="none" stroke="#48ac34" stroke-linecap="round" stroke-linejoin="round" stroke-width="1.255"></path>
        <path id="Path_278" d="M35.42,85.061H16.808a2.333,2.333,0,0,1-2.327-2.325V64.122A2.333,2.333,0,0,1,16.808,61.8H35.42a2.333,2.333,0,0,1,2.326,2.326V82.736a2.333,2.333,0,0,1-2.326,2.325" transform="translate(1.507 6.432)" fill="#48ac34"></path>
        <path id="Rectangle_128" d="M2.106,0H21.157a2.108,2.108,0,0,1,2.108,2.108v19.05a2.107,2.107,0,0,1-2.107,2.107H2.107A2.107,2.107,0,0,1,0,21.158V2.106A2.106,2.106,0,0,1,2.106,0Z" transform="translate(15.988 68.228)" fill="none" stroke="#48ac34" stroke-linecap="round" stroke-linejoin="round" stroke-width="1.255"></path>
        <path id="Path_279" d="M160.283,72.807a5.041,5.041,0,1,1-5.04-5.04,5.04,5.04,0,0,1,5.04,5.04" transform="translate(15.634 7.053)" fill="#fff"></path>
        <path id="Path_280" d="M160.283,72.807a5.041,5.041,0,1,1-5.04-5.04A5.04,5.04,0,0,1,160.283,72.807Z" transform="translate(15.634 7.053)" fill="none" stroke="#fff" stroke-miterlimit="10" stroke-width="2.091"></path>
        <path id="Path_281" d="M30.534,72.807a5.041,5.041,0,1,1-5.041-5.04,5.041,5.041,0,0,1,5.041,5.04" transform="translate(2.129 7.053)" fill="#fff"></path>
        <path id="Path_282" d="M30.534,72.807a5.041,5.041,0,1,1-5.041-5.04A5.041,5.041,0,0,1,30.534,72.807Z" transform="translate(2.129 7.053)" fill="none" stroke="#fff" stroke-miterlimit="10" stroke-width="2.091"></path>
        <path id="Path_283" d="M55.208,2.9,3.016,54.748V12.978A10.082,10.082,0,0,1,13.1,2.9Z" transform="translate(0.314 0.301)" fill="#48ac34"></path>
        <path id="Path_284" d="M75.24,3,48.868,29.047l.1-26.15Z" transform="translate(5.086 0.301)" fill="#48ac34"></path>
        <path id="Path_285" d="M84.388,2.946,71.3,16.042,71.35,2.9Z" transform="translate(7.421 0.301)" fill="#48ac34"></path>
        <path id="Path_286" d="M96.379,26.381A1.874,1.874,0,1,0,94.466,24.5a1.9,1.9,0,0,0,1.913,1.881" transform="translate(9.832 2.356)" fill="#48ac34"></path>
        <path id="Path_287" d="M83.619,22.587a1.874,1.874,0,1,0,1.912,1.88,1.9,1.9,0,0,0-1.912-1.88" transform="translate(8.503 2.351)" fill="#48ac34"></path>
        <path id="Path_288" d="M84.347,19.591A5.57,5.57,0,1,0,84.3,30.727l14.269.053a5.57,5.57,0,1,0,.042-11.136Zm14.214,14.9-14.269-.054a9.409,9.409,0,0,1-9.479-9.314,9.41,9.41,0,0,1,9.548-9.245l14.269.053a9.409,9.409,0,0,1,9.477,9.315,9.409,9.409,0,0,1-9.547,9.244" transform="translate(7.787 1.653)" fill="#48ac34"></path>
        <path id="Path_289" d="M67.235,47.736A1.939,1.939,0,1,1,65.3,45.8a1.939,1.939,0,0,1,1.939,1.939" transform="translate(6.594 4.767)" opacity="0.2"></path>
        <path id="Path_290" d="M79.625,47.736A1.939,1.939,0,1,1,77.686,45.8a1.939,1.939,0,0,1,1.939,1.939" transform="translate(7.884 4.767)" fill="red" stroke="#f50315" stroke-width="3"></path>
        <path id="Path_291" d="M92.014,47.736A1.939,1.939,0,1,1,90.075,45.8a1.939,1.939,0,0,1,1.939,1.939" transform="translate(9.174 4.767)" opacity="0.2"></path>
        <path id="Path_292" d="M104.4,47.736a1.939,1.939,0,1,1-1.939-1.939,1.939,1.939,0,0,1,1.939,1.939" transform="translate(10.463 4.767)" fill="red" stroke="#f50315" stroke-width="3"></path>
        <path id="Path_293" d="M116.794,47.736a1.939,1.939,0,1,1-1.939-1.939,1.939,1.939,0,0,1,1.939,1.939" transform="translate(11.753 4.767)" opacity="0.2"></path>
        <path id="Path_294" d="M67.235,60.125A1.939,1.939,0,1,1,65.3,58.186a1.939,1.939,0,0,1,1.939,1.939" transform="translate(6.594 6.056)" fill="red" stroke="#f50315" stroke-width="3"></path>
        <path id="Path_295" d="M79.625,60.125a1.939,1.939,0,1,1-1.939-1.939,1.939,1.939,0,0,1,1.939,1.939" transform="translate(7.884 6.056)" fill="red" stroke="#f50315" stroke-width="3"></path>
        <path id="Path_296" d="M92.014,60.125a1.939,1.939,0,1,1-1.939-1.939,1.939,1.939,0,0,1,1.939,1.939" transform="translate(9.174 6.056)" fill="red" stroke="#f50315" stroke-width="3"></path>
        <path id="Path_297" d="M104.4,60.125a1.939,1.939,0,1,1-1.939-1.939,1.939,1.939,0,0,1,1.939,1.939" transform="translate(10.463 6.056)" fill="red" stroke="#f50315" stroke-width="3"></path>
        <path id="Path_298" d="M116.794,60.125a1.939,1.939,0,1,1-1.939-1.939,1.939,1.939,0,0,1,1.939,1.939" transform="translate(11.753 6.056)" fill="red" stroke="#f50315" stroke-width="3"></path>
        <path id="Path_299" d="M67.235,72.515A1.939,1.939,0,1,1,65.3,70.576a1.939,1.939,0,0,1,1.939,1.939" transform="translate(6.594 7.346)" fill="red" stroke="#f50315" stroke-width="3"></path>
        <path id="Path_300" d="M79.625,72.515a1.939,1.939,0,1,1-1.939-1.939,1.939,1.939,0,0,1,1.939,1.939" transform="translate(7.884 7.346)" fill="red" stroke="#f50315" stroke-width="3"></path>
        <path id="Path_301" d="M92.014,72.515a1.939,1.939,0,1,1-1.939-1.939,1.939,1.939,0,0,1,1.939,1.939" transform="translate(9.174 7.346)" fill="red" stroke="#f50315" stroke-width="3"></path>
        <path id="Path_302" d="M104.4,72.515a1.939,1.939,0,1,1-1.939-1.939,1.939,1.939,0,0,1,1.939,1.939" transform="translate(10.463 7.346)" fill="red" stroke="#f50315" stroke-width="3"></path>
        <path id="Path_303" d="M116.794,72.515a1.939,1.939,0,1,1-1.939-1.939,1.939,1.939,0,0,1,1.939,1.939" transform="translate(11.753 7.346)" fill="red" stroke="#f50315" stroke-width="3"></path>
        <path id="Path_304" d="M67.235,84.906a1.939,1.939,0,1,1-1.939-1.94,1.939,1.939,0,0,1,1.939,1.94" transform="translate(6.594 8.635)" opacity="0.2"></path>
        <path id="Path_305" d="M79.625,84.906a1.939,1.939,0,1,1-1.939-1.94,1.939,1.939,0,0,1,1.939,1.94" transform="translate(7.884 8.635)" fill="red" stroke="#f50315" stroke-width="3"></path>
        <path id="Path_306" d="M92.014,84.906a1.939,1.939,0,1,1-1.939-1.94,1.939,1.939,0,0,1,1.939,1.94" transform="translate(9.174 8.635)" fill="red" stroke="#f50315" stroke-width="3"></path>
        <path id="Path_307" d="M104.4,84.906a1.939,1.939,0,1,1-1.939-1.94,1.939,1.939,0,0,1,1.939,1.94" transform="translate(10.463 8.635)" fill="red" stroke="#f50315" stroke-width="3"></path>
        <path id="Path_308" d="M116.794,84.906a1.939,1.939,0,1,1-1.939-1.94,1.939,1.939,0,0,1,1.939,1.94" transform="translate(11.753 8.635)" opacity="0.2"></path>
        <path id="Path_309" d="M67.235,97.295a1.939,1.939,0,1,1-1.939-1.94,1.938,1.938,0,0,1,1.939,1.94" transform="translate(6.594 9.925)" opacity="0.2"></path>
        <path id="Path_310" d="M79.625,97.295a1.939,1.939,0,1,1-1.939-1.94,1.938,1.938,0,0,1,1.939,1.94" transform="translate(7.884 9.925)" opacity="0.2"></path>
        <path id="Path_311" d="M92.014,97.295a1.939,1.939,0,1,1-1.939-1.94,1.939,1.939,0,0,1,1.939,1.94" transform="translate(9.174 9.925)" fill="red" stroke="#f50315" stroke-width="3"></path>
        <path id="Path_312" d="M104.4,97.295a1.939,1.939,0,1,1-1.939-1.94,1.939,1.939,0,0,1,1.939,1.94" transform="translate(10.463 9.925)" opacity="0.2"></path>
        <path id="Path_313" d="M116.794,97.295a1.939,1.939,0,1,1-1.939-1.94,1.939,1.939,0,0,1,1.939,1.94" transform="translate(11.753 9.925)" opacity="0.2"></path>
      </g>
    </g>
  </g>
</svg>
